<svg width="734" height="513" viewBox="0 0 734 513" fill="none" xmlns="http://www.w3.org/2000/svg">
<g filter="url(#filter0_g_136_5)">
<path d="M98.3941 482.756C95.2366 483.644 91.9497 481.8 91.1173 478.84C90.7843 477.656 90.8461 476.361 91.4999 474.899C94.5405 468.295 94.0477 458.211 91.828 450.318C90.9956 447.357 89.824 444.706 88.2022 441.967C86.5804 439.229 85.3533 436.38 84.41 433.025C82.9671 427.894 82.2152 419.162 87.9383 417.552C91.0958 416.664 94.2408 418.761 95.0732 421.721C95.3507 422.708 95.4863 423.948 95.2827 425.496C95.0791 427.044 95.2702 428.481 95.6587 429.862C96.3801 432.427 97.6072 435.277 99.229 438.015C100.653 440.809 101.991 444.052 103.046 447.802C103.434 449.183 103.792 451.212 104.205 453.439C106.604 452.125 108.559 449.233 110.971 444.935C121.949 425.664 132.73 406.448 142.974 387.596C153.218 368.744 164.11 349.923 176.044 331.022C176.47 330.263 176.642 329.363 176.476 328.771C175.755 326.205 165.394 325.711 163.223 326.322C163.026 326.377 162.631 326.488 162.434 326.544C162.292 326.797 161.897 326.908 161.7 326.963C158.74 327.795 155.311 326.204 154.423 323.047C153.313 319.1 156.169 316.38 160.313 315.215C162.878 314.493 165.16 314.278 167.158 314.568C169.212 315.055 170.957 315.203 172.844 315.098C179.603 314.901 185.949 319.293 187.669 325.41C188.835 329.555 188.199 333.353 185.874 337.201C174.137 356.047 163.048 374.924 152.804 393.776C142.559 412.628 132.118 431.535 121.368 450.103C117.908 455.974 113.88 462.856 105.789 465.131L105 465.353C104.993 473.66 103.722 481.258 98.3941 482.756ZM88.8827 400.464C85.7251 401.351 82.6356 399.452 81.8032 396.492C81.5257 395.505 81.5566 394.857 81.5874 394.21C82.8461 382.783 74.6692 371.879 74.7809 358.645C74.7254 358.447 74.7254 358.447 74.6699 358.25C74.4726 358.305 74.4726 358.305 74.4171 358.108C69.9031 353.415 65.9315 353.68 57.4456 356.066C54.4855 356.898 51.4514 355.196 50.5635 352.038C49.1762 347.105 53.6905 344.984 57.8348 343.818C68.0968 340.933 76.3666 343.079 82.8971 350.4C83.5137 351.078 84.1304 351.757 84.9444 352.379C85.6166 353.255 86.0359 353.989 86.3133 354.976C87.2567 358.331 88.0028 361.741 88.6069 365.404C89.0138 369.123 89.8708 372.928 90.9252 376.678C93.0339 384.177 96.1845 398.41 88.8827 400.464ZM249.095 431.01C246.134 431.843 243.97 430.961 242.262 428.673C235.959 434.278 230.149 443.152 223.439 445.039C213.177 447.924 204.957 440.653 202.404 431.575C198.298 416.972 208.395 386.236 219.478 368.852C224.948 360.286 231.56 355.02 239.454 352.8C242.414 351.968 246.977 351.536 251.96 351.839L252.195 349.643C252.515 346.998 254.353 345.203 256.524 344.593C260.471 343.483 263.388 346.283 264.109 348.848C264.276 349.44 264.3 350.285 264.381 351.327L255.312 412.226C256.971 412.824 258.007 414.236 258.506 416.013C259.45 419.367 257.408 422.71 254.251 423.598L253.461 423.82L253.227 426.015C253.048 428.408 251.266 430.4 249.095 431.01ZM242.783 364.641C226.009 369.358 217.651 401.734 213.684 420.95C213.308 423.398 213.185 425.988 213.851 428.357C214.683 431.317 217.205 434.228 220.165 433.395C223.323 432.507 226.24 428.493 226.807 427.482C231.143 420.939 236.484 416.455 242.577 413.89L250.079 364.08C247.63 363.704 245.151 363.975 242.783 364.641ZM244.702 336.63C240.7 337.543 237.752 335.391 236.864 332.233C236.254 330.062 236.797 328.206 238.493 326.664L238.382 326.27C237.272 322.323 236.859 313.282 244.753 311.062C247.911 310.174 251.703 312.302 252.536 315.262C253.202 317.63 251.302 320.72 250.765 321.084L250.876 321.478C252.264 326.412 250.82 334.91 244.702 336.63ZM216.451 345.213C212.449 346.126 209.501 343.974 208.613 340.816C208.003 338.645 208.545 336.789 210.241 335.247L210.13 334.853C209.021 330.906 208.608 321.865 216.502 319.645C219.659 318.757 223.452 320.885 224.284 323.845C224.95 326.213 223.051 329.303 222.514 329.667L222.625 330.062C224.012 334.995 222.569 343.493 216.451 345.213ZM250.568 321.139L250.624 321.337L250.765 321.084L250.568 321.139ZM222.317 329.722L222.372 329.92L222.514 329.667L222.317 329.722ZM332.736 407.491C329.775 408.323 327.611 407.441 325.903 405.153C319.6 410.759 313.79 419.633 307.08 421.519C296.818 424.405 288.598 417.134 286.045 408.056C281.939 393.452 292.036 362.716 303.119 345.332C308.589 336.767 315.201 331.5 323.094 329.281C326.055 328.448 330.618 328.017 335.601 328.319L335.836 326.124C336.156 323.478 337.994 321.684 340.165 321.073C344.112 319.963 347.029 322.763 347.75 325.329C347.917 325.921 347.941 326.766 348.021 327.808L338.953 388.706C340.612 389.305 341.648 390.717 342.147 392.493C343.091 395.848 341.049 399.19 337.892 400.078L337.102 400.3L336.868 402.496C336.689 404.889 334.906 406.88 332.736 407.491ZM326.424 341.121C309.65 345.838 301.292 378.215 297.325 397.431C296.949 399.879 296.826 402.469 297.491 404.837C298.324 407.797 300.846 410.708 303.806 409.876C306.964 408.988 309.881 404.973 310.448 403.962C314.784 397.419 320.125 392.936 326.218 390.371L333.72 340.561C331.271 340.184 328.792 340.455 326.424 341.121ZM328.343 313.111C324.341 314.024 321.393 311.871 320.505 308.714C319.895 306.543 320.438 304.687 322.134 303.145L322.023 302.75C320.913 298.803 320.5 289.762 328.394 287.543C331.552 286.655 335.344 288.783 336.176 291.743C336.842 294.111 334.943 297.201 334.406 297.564L334.517 297.959C335.905 302.893 334.461 311.391 328.343 313.111ZM300.092 321.694C296.09 322.607 293.142 320.454 292.254 317.297C291.644 315.126 292.186 313.27 293.882 311.728L293.771 311.333C292.661 307.386 292.249 298.345 300.143 296.126C303.3 295.238 307.093 297.366 307.925 300.326C308.591 302.694 306.691 305.784 306.155 306.147L306.266 306.542C307.653 311.476 306.21 319.974 300.092 321.694ZM334.209 297.62L334.264 297.817L334.406 297.564L334.209 297.62ZM305.958 306.203L306.013 306.4L306.155 306.147L305.958 306.203ZM369.201 345.703C366.833 346.369 362.781 345.592 361.727 341.842C361.338 340.461 361.4 339.165 361.659 337.815C365.058 326.425 371.028 319.635 379.514 317.249L379.711 317.193C379.545 316.601 379.323 315.812 379.156 315.22C378.792 314.683 378.626 314.091 378.459 313.499C376.961 308.171 375.999 302.479 381.328 300.98C387.445 299.26 389.357 306.815 391.354 313.919C393.248 312.322 395.283 310.472 397.152 308.03C399.076 305.785 401.617 304.219 404.972 303.276C417.602 299.724 421.493 305.232 427.419 315.703C428.584 319.848 426.654 323.585 421.917 324.917C419.747 325.527 417.668 324.195 415.455 321.623C413.568 314.913 413.913 313.113 408.585 314.611C406.297 316.319 404.262 318.169 402.479 320.161C400.697 322.153 398.464 324.058 396.121 325.569C396.694 329.88 396.478 334.412 395.867 339.056C395.257 343.7 394.535 347.949 394.208 352.087L392.506 355.121C391.981 359.315 391.568 363.903 391.012 368.744C390.513 373.782 389.902 378.426 389.291 383.07L388.322 392.499C387.04 396.267 387.274 400.886 381.353 402.551C377.406 403.661 374.847 402.89 373.571 398.351C372.905 395.982 374.299 392.609 376.864 391.888L376.822 381.891C378.974 372.129 379.943 362.7 380.912 353.27L382.478 348.997C382.972 345.451 383.268 341.96 383.817 338.612C384.169 335.318 384.323 332.081 384.28 328.899C380.925 329.842 375.874 332.327 372.624 341.972C372.223 343.575 369.99 345.481 369.201 345.703ZM488.84 363.595C485.879 364.427 483.715 363.546 482.007 361.257C475.704 366.863 469.894 375.737 463.184 377.624C452.922 380.509 444.702 373.238 442.149 364.16C438.043 349.556 448.14 318.821 459.223 301.437C464.693 292.871 471.305 287.605 479.198 285.385C482.159 284.553 486.722 284.121 491.705 284.424L491.94 282.228C492.26 279.582 494.098 277.788 496.269 277.178C500.216 276.068 503.133 278.868 503.854 281.433C504.021 282.025 504.045 282.87 504.125 283.912L495.057 344.811C496.716 345.409 497.752 346.821 498.251 348.597C499.195 351.952 497.153 355.295 493.996 356.183L493.206 356.405L492.972 358.6C492.793 360.993 491.01 362.985 488.84 363.595ZM482.528 297.226C465.754 301.943 457.396 334.319 453.429 353.535C453.053 355.983 452.929 358.573 453.595 360.942C454.428 363.902 456.95 366.813 459.91 365.98C463.068 365.092 465.985 361.078 466.552 360.066C470.888 353.524 476.229 349.04 482.322 346.475L489.824 296.665C487.375 296.289 484.896 296.56 482.528 297.226ZM484.447 269.215C480.445 270.128 477.497 267.975 476.609 264.818C475.999 262.647 476.542 260.791 478.238 259.249L478.127 258.855C477.017 254.908 476.604 245.867 484.498 243.647C487.655 242.759 491.448 244.887 492.28 247.847C492.946 250.215 491.047 253.305 490.51 253.669L490.621 254.063C492.009 258.997 490.565 267.495 484.447 269.215ZM456.196 277.798C452.193 278.711 449.246 276.558 448.358 273.401C447.747 271.23 448.29 269.374 449.986 267.832L449.875 267.438C448.765 263.491 448.353 254.45 456.247 252.23C459.404 251.342 463.197 253.47 464.029 256.43C464.695 258.798 462.795 261.888 462.259 262.252L462.37 262.646C463.757 267.58 462.314 276.078 456.196 277.798ZM490.313 253.724L490.368 253.922L490.51 253.669L490.313 253.724ZM462.062 262.307L462.117 262.505L462.259 262.252L462.062 262.307ZM547.176 357.626C531.586 362.01 522.213 354.424 517.773 338.636C518.039 335.793 519.772 332.111 522.929 331.224C526.284 330.28 529.09 332.685 530.144 336.435C532.808 345.908 538.124 347.394 544.242 345.674C552.727 343.288 552.21 332.36 550.601 326.637C548.381 318.743 541.141 312.687 536.331 304.669C534.401 301.592 532.416 298.317 530.233 295.098C527.908 292.131 526.428 289.14 525.596 286.18C522.322 274.537 531.048 261.648 542.495 258.429C548.612 256.709 553.762 257.604 557.998 261.31C559.99 263.093 560.329 262.784 563.289 261.952L565.263 261.397C567.434 260.787 570.357 262.094 571.189 265.054C572.022 268.014 571.664 272.8 567.914 273.854L565.743 274.465C561.994 275.519 557.319 275.556 550.832 271.418C550.073 270.992 548.192 269.604 545.627 270.326C542.469 271.214 535.852 277.972 537.239 282.906C540.125 293.168 558.699 309.24 562.75 323.646C566.357 336.474 561.977 353.464 547.176 357.626ZM606.92 340.826C591.33 345.21 581.956 337.624 577.517 321.836C577.782 318.993 579.515 315.312 582.673 314.424C586.028 313.481 588.833 315.886 589.888 319.635C592.551 329.108 597.867 330.595 603.985 328.874C612.471 326.488 611.953 315.56 610.344 309.837C608.124 301.943 600.885 295.887 596.075 287.87C594.145 284.792 592.159 281.517 589.976 278.298C587.651 275.332 586.172 272.341 585.339 269.38C582.065 257.737 590.792 244.848 602.238 241.63C608.356 239.91 613.505 240.804 617.742 244.511C619.734 246.293 620.073 245.985 623.033 245.152L625.006 244.597C627.177 243.987 630.1 245.294 630.933 248.255C631.765 251.215 631.407 256 627.658 257.055L625.487 257.665C621.737 258.72 617.063 258.756 610.575 254.618C609.817 254.192 607.936 252.805 605.37 253.526C602.213 254.414 595.595 261.173 596.983 266.106C599.868 276.368 618.442 292.44 622.493 306.847C626.1 319.674 621.721 336.664 606.92 340.826ZM691.967 306.477C689.007 307.309 686.843 306.427 685.135 304.139C678.832 309.744 673.022 318.618 666.312 320.505C656.05 323.391 647.83 316.119 645.277 307.042C641.171 292.438 651.268 261.702 662.351 244.318C667.821 235.752 674.432 230.486 682.326 228.266C685.286 227.434 689.85 227.003 694.833 227.305L695.067 225.11C695.388 222.464 697.226 220.669 699.397 220.059C703.344 218.949 706.261 221.749 706.982 224.315C707.149 224.907 707.173 225.751 707.253 226.794L698.185 287.692C699.844 288.29 700.88 289.703 701.379 291.479C702.322 294.834 700.281 298.176 697.123 299.064L696.334 299.286L696.1 301.481C695.921 303.874 694.138 305.866 691.967 306.477ZM685.656 240.107C668.881 244.824 660.523 277.2 656.557 296.416C656.181 298.865 656.057 301.455 656.723 303.823C657.556 306.783 660.078 309.694 663.038 308.862C666.196 307.974 669.113 303.959 669.68 302.948C674.016 296.405 679.357 291.922 685.45 289.357L692.951 239.546C690.503 239.17 688.024 239.441 685.656 240.107ZM687.575 212.097C683.573 213.009 680.625 210.857 679.737 207.699C679.127 205.529 679.67 203.672 681.366 202.131L681.255 201.736C680.145 197.789 679.732 188.748 687.626 186.528C690.783 185.641 694.576 187.768 695.408 190.729C696.074 193.097 694.175 196.186 693.638 196.55L693.749 196.945C695.136 201.878 693.693 210.377 687.575 212.097ZM659.324 220.68C655.321 221.592 652.374 219.44 651.486 216.282C650.875 214.112 651.418 212.255 653.114 210.714L653.003 210.319C651.893 206.372 651.481 197.331 659.374 195.111C662.532 194.224 666.325 196.351 667.157 199.312C667.823 201.68 665.923 204.769 665.387 205.133L665.498 205.528C666.885 210.461 665.442 218.96 659.324 220.68ZM693.441 196.606L693.496 196.803L693.638 196.55L693.441 196.606ZM665.189 205.189L665.245 205.386L665.387 205.133L665.189 205.189Z" fill="#120202"/>
</g>
<g filter="url(#filter1_g_136_5)">
<path d="M238.581 278.699C235.424 279.587 232.137 277.743 231.305 274.782C230.972 273.598 231.033 272.303 231.687 270.842C234.728 264.237 234.235 254.154 232.015 246.26C231.183 243.3 230.011 240.648 228.389 237.91C226.768 235.172 225.541 232.323 224.597 228.968C223.154 223.837 222.403 215.104 228.126 213.495C231.283 212.607 234.428 214.704 235.261 217.664C235.538 218.651 235.674 219.89 235.47 221.438C235.266 222.986 235.458 224.423 235.846 225.805C236.567 228.37 237.794 231.219 239.416 233.957C240.841 236.751 242.179 239.995 243.233 243.745C243.622 245.126 243.979 247.155 244.392 249.381C246.791 248.068 248.746 245.176 251.158 240.877C262.136 221.606 272.917 202.39 283.161 183.538C293.406 164.686 304.297 145.865 316.231 126.964C316.657 126.206 316.83 125.305 316.663 124.713C315.942 122.148 305.581 121.654 303.411 122.264C303.213 122.32 302.818 122.431 302.621 122.486C302.479 122.739 302.085 122.85 301.887 122.906C298.927 123.738 295.498 122.147 294.61 118.989C293.501 115.042 296.356 112.323 300.5 111.157C303.066 110.436 305.348 110.22 307.346 110.51C309.399 110.998 311.145 111.146 313.032 111.041C319.791 110.844 326.136 115.235 327.857 121.353C329.022 125.497 328.386 129.296 326.061 133.144C314.325 151.99 303.235 170.866 292.991 189.718C282.747 208.57 272.305 227.478 261.555 246.046C258.095 251.917 254.068 258.799 245.977 261.074L245.187 261.296C245.181 269.603 243.91 277.201 238.581 278.699ZM229.07 196.406C225.912 197.294 222.823 195.394 221.99 192.434C221.713 191.448 221.744 190.8 221.775 190.152C223.033 178.725 214.857 167.821 214.968 154.587C214.913 154.39 214.913 154.39 214.857 154.192C214.66 154.248 214.66 154.248 214.604 154.051C210.09 149.357 206.119 149.622 197.633 152.008C194.673 152.841 191.639 151.139 190.751 147.981C189.363 143.047 193.878 140.926 198.022 139.761C208.284 136.875 216.554 139.022 223.084 146.342C223.701 147.021 224.318 147.699 225.132 148.322C225.804 149.198 226.223 149.932 226.501 150.918C227.444 154.273 228.19 157.684 228.794 161.347C229.201 165.066 230.058 168.871 231.112 172.62C233.221 180.119 236.372 194.353 229.07 196.406ZM389.282 226.953C386.322 227.785 384.157 226.903 382.449 224.615C376.146 230.221 370.336 239.095 363.627 240.981C353.365 243.867 345.144 236.596 342.592 227.518C338.485 212.914 348.582 182.178 359.665 164.794C365.136 156.229 371.747 150.962 379.641 148.743C382.601 147.91 387.165 147.479 392.147 147.781L392.382 145.586C392.703 142.94 394.541 141.146 396.711 140.535C400.658 139.425 403.575 142.225 404.297 144.791C404.463 145.383 404.488 146.228 404.568 147.27L395.499 208.168C397.158 208.767 398.194 210.179 398.694 211.955C399.637 215.31 397.595 218.652 394.438 219.54L393.649 219.762L393.414 221.958C393.235 224.351 391.453 226.342 389.282 226.953ZM382.97 160.583C366.196 165.3 357.838 197.677 353.872 216.893C353.495 219.341 353.372 221.931 354.038 224.299C354.87 227.259 357.392 230.17 360.353 229.338C363.51 228.45 366.427 224.435 366.995 223.424C371.33 216.881 376.671 212.398 382.764 209.833L390.266 160.023C387.818 159.646 385.339 159.917 382.97 160.583ZM384.89 132.573C380.887 133.486 377.94 131.333 377.052 128.176C376.441 126.005 376.984 124.149 378.68 122.607L378.569 122.212C377.459 118.265 377.047 109.224 384.94 107.005C388.098 106.117 391.89 108.245 392.723 111.205C393.389 113.573 391.489 116.663 390.953 117.026L391.064 117.421C392.451 122.355 391.007 130.853 384.89 132.573ZM356.638 141.156C352.636 142.069 349.688 139.916 348.8 136.759C348.19 134.588 348.733 132.732 350.429 131.19L350.318 130.795C349.208 126.848 348.795 117.807 356.689 115.588C359.847 114.7 363.639 116.828 364.471 119.788C365.137 122.156 363.238 125.246 362.701 125.609L362.812 126.004C364.2 130.938 362.756 139.436 356.638 141.156ZM390.755 117.082L390.811 117.279L390.953 117.026L390.755 117.082ZM362.504 125.665L362.559 125.862L362.701 125.609L362.504 125.665ZM428.649 232.28C425.688 233.113 422.26 231.521 421.372 228.364C420.095 223.825 426.281 219.317 430.574 216.407C429.679 214.741 429.038 213.218 428.594 211.639C427.262 206.903 427.676 202.315 428.003 198.177C428.484 190.801 429.218 183.567 430.15 176.278C430.884 169.044 431.871 161.952 432.661 154.916L435.086 134.004C436.696 119.283 438.639 105.747 437.431 91.6057C433.293 91.2786 431.998 91.2169 430.42 91.6608C429.828 91.8273 429.433 91.9383 428.896 92.3021C428.36 92.6659 428.021 92.9743 427.428 93.1407C424.468 93.9731 420.953 92.8321 419.899 89.0825C418.622 84.5435 422.662 81.4911 427.201 80.2147C431.345 79.0494 444.185 79.272 446.374 80.9989C447.299 82.0165 448.082 83.2869 448.526 84.8657C450.622 102.164 448.524 118.938 446.569 135.46L444.088 156.174C442.367 170.5 440.899 184.968 439.769 199.127C439.276 202.673 439.066 205.713 439.898 208.674C444.789 204.104 448.274 199.078 449.403 191.733C449.779 189.285 451.025 187.657 453.59 186.936C456.945 185.992 459.948 188.342 460.67 190.908C460.836 191.5 460.861 192.345 460.941 193.387C458.412 212.412 444.079 218.997 430.85 231.022C430.172 231.639 429.438 232.058 428.649 232.28ZM494.906 207.047C491.552 207.991 487.814 206.06 486.871 202.705C486.483 201.324 486.489 199.832 487.001 198.623C486.581 197.889 486.36 197.1 486.082 196.113C485.86 195.324 485.638 194.534 485.416 193.745C480.255 175.392 491.412 167.357 492.251 148.381C492.35 144.946 496.471 129.307 496.304 128.714C496.027 127.728 495.466 127.247 494.676 127.469C489.545 128.911 485.918 141.005 478.617 143.058C475.262 144.001 471.525 142.071 470.47 138.321C468.972 132.993 474.923 130.681 478.691 125.149C481.609 121.135 485.685 115.942 491.211 114.388C498.315 112.391 507.048 118.453 508.823 124.768C511.542 134.438 505.887 140.075 505.399 148.943C504.72 163.188 494.828 178.747 498.046 190.193C503.443 185.907 507.155 180.179 508.987 173.062C509.758 170.503 511.313 169.214 513.483 168.603C517.233 167.549 520.686 169.985 521.63 173.34C521.963 174.524 522.043 175.566 521.728 176.72C518.354 188.955 508.326 203.274 494.906 207.047ZM498.569 105.718C495.411 106.606 491.976 106.507 489.417 105.736L486.851 106.457C483.472 106.556 481.597 103.676 480.543 99.9262C480.944 98.3228 482.56 95.7389 485.125 95.0175C485.322 94.962 486.167 94.9374 487.21 94.8573L489.578 94.1914C491.971 94.3703 493.969 94.6603 496.139 94.0499C497.323 93.7169 498.199 93.0447 498.822 92.2307C499.445 91.4167 500.179 90.9974 500.771 90.8309C503.139 90.165 506.925 93.7852 507.425 95.5613C508.368 98.9162 503.897 104.22 498.569 105.718ZM538.114 201.499C535.154 202.331 531.725 200.74 530.837 197.583C529.561 193.044 535.747 188.536 540.039 185.625C539.145 183.96 538.504 182.437 538.06 180.858C536.728 176.122 537.141 171.534 537.468 167.396C537.95 160.02 538.684 152.786 539.616 145.497C540.35 138.263 541.337 131.171 542.127 124.135L544.551 103.222C546.162 88.5019 548.105 74.9654 546.897 60.8245C542.759 60.4974 541.464 60.4357 539.885 60.8797C539.293 61.0461 538.898 61.1571 538.362 61.5209C537.825 61.8848 537.486 62.1931 536.894 62.3596C533.934 63.192 530.419 62.0509 529.364 58.3013C528.088 53.7624 532.128 50.7099 536.666 49.4336C540.811 48.2682 553.65 48.4909 555.84 50.2177C556.765 51.2353 557.548 52.5058 557.992 54.0846C560.088 71.383 557.99 88.1571 556.034 104.678L553.554 125.393C551.833 139.719 550.364 154.187 549.235 168.346C548.741 171.892 548.532 174.932 549.364 177.892C554.255 173.323 557.739 168.297 558.868 160.952C559.244 158.504 560.49 156.876 563.056 156.155C566.411 155.211 569.414 157.561 570.135 160.126C570.302 160.718 570.326 161.563 570.406 162.606C567.877 181.631 553.545 188.216 540.316 200.241C539.637 200.858 538.904 201.277 538.114 201.499ZM591.883 186.379C588.923 187.212 585.494 185.621 584.606 182.463C583.33 177.924 589.516 173.416 593.808 170.506C592.914 168.841 592.273 167.317 591.829 165.739C590.497 161.002 590.91 156.414 591.237 152.276C591.719 144.9 592.453 137.667 593.385 130.377C594.119 123.143 595.106 116.051 595.896 109.015L598.32 88.1028C599.931 73.3823 601.874 59.8458 600.666 45.7049C596.528 45.3778 595.233 45.3161 593.654 45.76C593.062 45.9265 592.667 46.0375 592.131 46.4013C591.594 46.7651 591.255 47.0735 590.663 47.2399C587.703 48.0723 584.188 46.9313 583.133 43.1817C581.857 38.6427 585.897 35.5903 590.436 34.3139C594.58 33.1486 607.42 33.3713 609.609 35.0981C610.534 36.1157 611.317 37.3862 611.761 38.9649C613.857 56.2634 611.759 73.0375 609.803 89.5588L607.323 110.274C605.602 124.599 604.133 139.067 603.004 153.226C602.511 156.772 602.301 159.813 603.133 162.773C608.024 158.203 611.508 153.177 612.637 145.833C613.014 143.384 614.259 141.756 616.825 141.035C620.18 140.092 623.183 142.441 623.904 145.007C624.071 145.599 624.095 146.444 624.176 147.486C621.646 166.511 607.314 173.097 594.085 185.122C593.407 185.738 592.673 186.158 591.883 186.379ZM689.927 142.413C686.966 143.245 684.802 142.363 683.094 140.075C676.791 145.681 670.981 154.555 664.271 156.442C654.009 159.327 645.789 152.056 643.236 142.978C639.13 128.374 649.227 97.6386 660.31 80.2544C665.78 71.6888 672.392 66.4225 680.285 64.2028C683.246 63.3704 687.809 62.9389 692.792 63.2414L693.027 61.0459C693.347 58.4003 695.185 56.6058 697.356 55.9954C701.303 54.8855 704.22 57.6855 704.941 60.251C705.108 60.843 705.132 61.6879 705.213 62.7302L696.144 123.629C697.803 124.227 698.839 125.639 699.338 127.415C700.282 130.77 698.24 134.113 695.083 135.001L694.293 135.222L694.059 137.418C693.88 139.811 692.097 141.803 689.927 142.413ZM683.615 76.0436C666.841 80.7605 658.483 113.137 654.516 132.353C654.14 134.801 654.017 137.391 654.683 139.759C655.515 142.72 658.037 145.63 660.997 144.798C664.155 143.91 667.072 139.896 667.639 138.884C671.975 132.341 677.316 127.858 683.409 125.293L690.911 75.4827C688.462 75.1064 685.983 75.3777 683.615 76.0436ZM685.534 48.0332C681.532 48.9457 678.584 46.7933 677.696 43.6358C677.086 41.465 677.629 39.6087 679.325 38.0671L679.214 37.6724C678.104 33.7254 677.691 24.6846 685.585 22.4649C688.743 21.577 692.535 23.7048 693.368 26.665C694.033 29.0332 692.134 32.1228 691.597 32.4866L691.708 32.8813C693.096 37.8149 691.652 46.3129 685.534 48.0332ZM657.283 56.6162C653.281 57.5287 650.333 55.3763 649.445 52.2188C648.835 50.048 649.377 48.1917 651.073 46.6501L650.962 46.2554C649.853 42.3085 649.44 33.2676 657.334 31.0479C660.491 30.16 664.284 32.2878 665.116 35.248C665.782 37.6162 663.883 40.7057 663.346 41.0696L663.457 41.4643C664.844 46.3979 663.401 54.896 657.283 56.6162ZM691.4 32.5421L691.455 32.7394L691.597 32.4866L691.4 32.5421ZM663.149 41.1251L663.204 41.3224L663.346 41.0696L663.149 41.1251Z" fill="#120202"/>
</g>
<defs>
<filter id="filter0_g_136_5" x="47.6542" y="164.6" width="683.657" height="323.329" filterUnits="userSpaceOnUse" color-interpolation-filters="sRGB">
<feFlood flood-opacity="0" result="BackgroundImageFix"/>
<feBlend mode="normal" in="SourceGraphic" in2="BackgroundImageFix" result="shape"/>
<feTurbulence type="fractalNoise" baseFrequency="0.21739131212234497 0.21739131212234497" numOctaves="3" seed="806" />
<feDisplacementMap in="shape" scale="2.5999999046325684" xChannelSelector="R" yChannelSelector="G" result="displacedImage" width="100%" height="100%" />
<feMerge result="effect1_texture_136_5">
<feMergeNode in="displacedImage"/>
</feMerge>
</filter>
<filter id="filter1_g_136_5" x="187.841" y="0.536426" width="542.983" height="288.86" filterUnits="userSpaceOnUse" color-interpolation-filters="sRGB">
<feFlood flood-opacity="0" result="BackgroundImageFix"/>
<feBlend mode="normal" in="SourceGraphic" in2="BackgroundImageFix" result="shape"/>
<feTurbulence type="fractalNoise" baseFrequency="0.21739131212234497 0.21739131212234497" numOctaves="3" seed="806" />
<feDisplacementMap in="shape" scale="2.5999999046325684" xChannelSelector="R" yChannelSelector="G" result="displacedImage" width="100%" height="100%" />
<feMerge result="effect1_texture_136_5">
<feMergeNode in="displacedImage"/>
</feMerge>
</filter>
</defs>
</svg>
