<svg width="734" height="513" viewBox="0 0 734 513" fill="none" xmlns="http://www.w3.org/2000/svg">
<g filter="url(#filter0_g_136_4)">
<path d="M98.3941 483.015C95.2366 483.902 91.9497 482.058 91.1173 479.098C90.7843 477.914 90.8461 476.619 91.4999 475.157C94.5405 468.553 94.0477 458.47 91.828 450.576C90.9956 447.616 89.824 444.964 88.2022 442.226C86.5804 439.487 85.3533 436.638 84.41 433.283C82.9671 428.152 82.2152 419.42 87.9383 417.811C91.0958 416.923 94.2408 419.02 95.0732 421.98C95.3507 422.967 95.4863 424.206 95.2827 425.754C95.0791 427.302 95.2702 428.739 95.6587 430.12C96.3801 432.686 97.6072 435.535 99.229 438.273C100.653 441.067 101.991 444.311 103.046 448.06C103.434 449.442 103.792 451.471 104.205 453.697C106.604 452.384 108.559 449.491 110.971 445.193C121.949 425.922 132.73 406.706 142.974 387.854C153.218 369.002 164.11 350.181 176.044 331.28C176.47 330.521 176.642 329.621 176.476 329.029C175.755 326.463 165.394 325.97 163.223 326.58C163.026 326.636 162.631 326.747 162.434 326.802C162.292 327.055 161.897 327.166 161.7 327.221C158.74 328.054 155.311 326.462 154.423 323.305C153.313 319.358 156.169 316.638 160.313 315.473C162.878 314.752 165.16 314.536 167.158 314.826C169.212 315.313 170.957 315.461 172.844 315.357C179.603 315.16 185.949 319.551 187.669 325.669C188.835 329.813 188.199 333.612 185.874 337.46C174.137 356.305 163.048 375.182 152.804 394.034C142.559 412.886 132.118 431.793 121.368 450.362C117.908 456.232 113.88 463.115 105.789 465.39L105 465.612C104.993 473.919 103.722 481.516 98.3941 483.015ZM88.8827 400.722C85.7251 401.61 82.6356 399.71 81.8032 396.75C81.5257 395.763 81.5566 395.116 81.5874 394.468C82.8461 383.041 74.6692 372.137 74.7809 358.903C74.7254 358.706 74.7254 358.706 74.6699 358.508C74.4726 358.564 74.4726 358.564 74.4171 358.366C69.9031 353.673 65.9315 353.938 57.4456 356.324C54.4855 357.157 51.4514 355.454 50.5635 352.297C49.1762 347.363 53.6905 345.242 57.8348 344.077C68.0968 341.191 76.3666 343.337 82.8971 350.658C83.5137 351.336 84.1304 352.015 84.9444 352.638C85.6166 353.513 86.0359 354.247 86.3133 355.234C87.2567 358.589 88.0028 361.999 88.6069 365.663C89.0138 369.381 89.8708 373.186 90.9252 376.936C93.0339 384.435 96.1845 398.669 88.8827 400.722ZM249.095 431.268C246.134 432.101 243.97 431.219 242.262 428.931C235.959 434.536 230.149 443.41 223.439 445.297C213.177 448.183 204.957 440.911 202.404 431.833C198.298 417.23 208.395 386.494 219.478 369.11C224.948 360.544 231.56 355.278 239.454 353.058C242.414 352.226 246.977 351.794 251.96 352.097L252.195 349.901C252.515 347.256 254.353 345.461 256.524 344.851C260.471 343.741 263.388 346.541 264.109 349.107C264.276 349.699 264.3 350.543 264.381 351.586L255.312 412.484C256.971 413.082 258.007 414.495 258.506 416.271C259.45 419.626 257.408 422.968 254.251 423.856L253.461 424.078L253.227 426.273C253.048 428.666 251.266 430.658 249.095 431.268ZM242.783 364.899C226.009 369.616 217.651 401.992 213.684 421.208C213.308 423.657 213.185 426.247 213.851 428.615C214.683 431.575 217.205 434.486 220.165 433.654C223.323 432.766 226.24 428.751 226.807 427.74C231.143 421.197 236.484 416.714 242.577 414.149L250.079 364.338C247.63 363.962 245.151 364.233 242.783 364.899ZM244.702 336.889C240.7 337.801 237.752 335.649 236.864 332.491C236.254 330.321 236.797 328.464 238.493 326.923L238.382 326.528C237.272 322.581 236.859 313.54 244.753 311.32C247.911 310.433 251.703 312.56 252.536 315.521C253.202 317.889 251.302 320.978 250.765 321.342L250.876 321.737C252.264 326.67 250.82 335.168 244.702 336.889ZM216.451 345.472C212.449 346.384 209.501 344.232 208.613 341.074C208.003 338.904 208.545 337.047 210.241 335.506L210.13 335.111C209.021 331.164 208.608 322.123 216.502 319.903C219.659 319.016 223.452 321.143 224.284 324.104C224.95 326.472 223.051 329.561 222.514 329.925L222.625 330.32C224.012 335.253 222.569 343.751 216.451 345.472ZM250.568 321.398L250.624 321.595L250.765 321.342L250.568 321.398ZM222.317 329.981L222.372 330.178L222.514 329.925L222.317 329.981ZM332.736 407.749C329.775 408.581 327.611 407.699 325.903 405.411C319.6 411.017 313.79 419.891 307.08 421.778C296.818 424.663 288.598 417.392 286.045 408.314C281.939 393.71 292.036 362.975 303.119 345.591C308.589 337.025 315.201 331.759 323.094 329.539C326.055 328.707 330.618 328.275 335.601 328.577L335.836 326.382C336.156 323.736 337.994 321.942 340.165 321.332C344.112 320.222 347.029 323.022 347.75 325.587C347.917 326.179 347.941 327.024 348.021 328.066L338.953 388.965C340.612 389.563 341.648 390.975 342.147 392.751C343.091 396.106 341.049 399.449 337.892 400.337L337.102 400.559L336.868 402.754C336.689 405.147 334.906 407.139 332.736 407.749ZM326.424 341.38C309.65 346.097 301.292 378.473 297.325 397.689C296.949 400.137 296.826 402.727 297.491 405.095C298.324 408.056 300.846 410.967 303.806 410.134C306.964 409.246 309.881 405.232 310.448 404.22C314.784 397.677 320.125 393.194 326.218 390.629L333.72 340.819C331.271 340.443 328.792 340.714 326.424 341.38ZM328.343 313.369C324.341 314.282 321.393 312.129 320.505 308.972C319.895 306.801 320.438 304.945 322.134 303.403L322.023 303.009C320.913 299.062 320.5 290.021 328.394 287.801C331.552 286.913 335.344 289.041 336.176 292.001C336.842 294.369 334.943 297.459 334.406 297.823L334.517 298.217C335.905 303.151 334.461 311.649 328.343 313.369ZM300.092 321.952C296.09 322.865 293.142 320.712 292.254 317.555C291.644 315.384 292.186 313.528 293.882 311.986L293.771 311.591C292.661 307.645 292.249 298.604 300.143 296.384C303.3 295.496 307.093 297.624 307.925 300.584C308.591 302.952 306.691 306.042 306.155 306.406L306.266 306.8C307.653 311.734 306.21 320.232 300.092 321.952ZM334.209 297.878L334.264 298.076L334.406 297.823L334.209 297.878ZM305.958 306.461L306.013 306.659L306.155 306.406L305.958 306.461ZM369.201 345.961C366.833 346.627 362.781 345.85 361.727 342.1C361.338 340.719 361.4 339.424 361.659 338.073C365.058 326.683 371.028 319.893 379.514 317.507L379.711 317.452C379.545 316.86 379.323 316.07 379.156 315.478C378.792 314.942 378.626 314.35 378.459 313.758C376.961 308.429 375.999 302.737 381.328 301.239C387.445 299.519 389.357 307.073 391.354 314.178C393.248 312.58 395.283 310.73 397.152 308.288C399.076 306.044 401.617 304.477 404.972 303.534C417.602 299.983 421.493 305.49 427.419 315.962C428.584 320.106 426.654 323.843 421.917 325.175C419.747 325.785 417.668 324.453 415.455 321.881C413.568 315.172 413.913 313.371 408.585 314.869C406.297 316.577 404.262 318.427 402.479 320.419C400.697 322.411 398.464 324.317 396.121 325.827C396.694 330.138 396.478 334.671 395.867 339.314C395.257 343.958 394.535 348.207 394.208 352.345L392.506 355.379C391.981 359.573 391.568 364.161 391.012 369.002C390.513 374.04 389.902 378.684 389.291 383.328L388.322 392.757C387.04 396.525 387.274 401.144 381.353 402.809C377.406 403.919 374.847 403.148 373.571 398.609C372.905 396.241 374.299 392.867 376.864 392.146L376.822 382.149C378.974 372.387 379.943 362.958 380.912 353.529L382.478 349.255C382.972 345.709 383.268 342.218 383.817 338.87C384.169 335.577 384.323 332.339 384.28 329.157C380.925 330.1 375.874 332.585 372.624 342.23C372.223 343.834 369.99 345.739 369.201 345.961ZM488.84 363.853C485.879 364.686 483.715 363.804 482.007 361.516C475.704 367.121 469.894 375.995 463.184 377.882C452.922 380.768 444.702 373.496 442.149 364.418C438.043 349.815 448.14 319.079 459.223 301.695C464.693 293.129 471.305 287.863 479.198 285.643C482.159 284.811 486.722 284.379 491.705 284.682L491.94 282.486C492.26 279.841 494.098 278.046 496.269 277.436C500.216 276.326 503.133 279.126 503.854 281.691C504.021 282.283 504.045 283.128 504.125 284.171L495.057 345.069C496.716 345.667 497.752 347.08 498.251 348.856C499.195 352.211 497.153 355.553 493.996 356.441L493.206 356.663L492.972 358.858C492.793 361.251 491.01 363.243 488.84 363.853ZM482.528 297.484C465.754 302.201 457.396 334.577 453.429 353.793C453.053 356.242 452.929 358.832 453.595 361.2C454.428 364.16 456.95 367.071 459.91 366.239C463.068 365.351 465.985 361.336 466.552 360.325C470.888 353.782 476.229 349.299 482.322 346.734L489.824 296.923C487.375 296.547 484.896 296.818 482.528 297.484ZM484.447 269.474C480.445 270.386 477.497 268.234 476.609 265.076C475.999 262.905 476.542 261.049 478.238 259.508L478.127 259.113C477.017 255.166 476.604 246.125 484.498 243.905C487.655 243.017 491.448 245.145 492.28 248.105C492.946 250.474 491.047 253.563 490.51 253.927L490.621 254.322C492.009 259.255 490.565 267.753 484.447 269.474ZM456.196 278.057C452.193 278.969 449.246 276.817 448.358 273.659C447.747 271.488 448.29 269.632 449.986 268.091L449.875 267.696C448.765 263.749 448.353 254.708 456.247 252.488C459.404 251.6 463.197 253.728 464.029 256.688C464.695 259.057 462.795 262.146 462.259 262.51L462.37 262.905C463.757 267.838 462.314 276.336 456.196 278.057ZM490.313 253.983L490.368 254.18L490.51 253.927L490.313 253.983ZM462.062 262.566L462.117 262.763L462.259 262.51L462.062 262.566ZM547.176 357.884C531.586 362.268 522.213 354.682 517.773 338.894C518.039 336.051 519.772 332.37 522.929 331.482C526.284 330.538 529.09 332.944 530.144 336.693C532.808 346.166 538.124 347.652 544.242 345.932C552.727 343.546 552.21 332.618 550.601 326.895C548.381 319.001 541.141 312.945 536.331 304.927C534.401 301.85 532.416 298.575 530.233 295.356C527.908 292.39 526.428 289.399 525.596 286.438C522.322 274.795 531.048 261.906 542.495 258.688C548.612 256.968 553.762 257.862 557.998 261.569C559.99 263.351 560.329 263.043 563.289 262.21L565.263 261.655C567.434 261.045 570.357 262.352 571.189 265.313C572.022 268.273 571.664 273.058 567.914 274.113L565.743 274.723C561.994 275.777 557.319 275.814 550.832 271.676C550.073 271.25 548.192 269.863 545.627 270.584C542.469 271.472 535.852 278.231 537.239 283.164C540.125 293.426 558.699 309.498 562.75 323.905C566.357 336.732 561.977 353.722 547.176 357.884ZM606.92 341.084C591.33 345.468 581.956 337.882 577.517 322.095C577.782 319.252 579.515 315.57 582.673 314.682C586.028 313.739 588.833 316.144 589.888 319.894C592.551 329.366 597.867 330.853 603.985 329.133C612.471 326.746 611.953 315.818 610.344 310.095C608.124 302.202 600.885 296.145 596.075 288.128C594.145 285.05 592.159 281.776 589.976 278.556C587.651 275.59 586.172 272.599 585.339 269.639C582.065 257.995 590.792 245.107 602.238 241.888C608.356 240.168 613.505 241.062 617.742 244.769C619.734 246.551 620.073 246.243 623.033 245.411L625.006 244.856C627.177 244.245 630.1 245.553 630.933 248.513C631.765 251.473 631.407 256.259 627.658 257.313L625.487 257.924C621.737 258.978 617.063 259.015 610.575 254.876C609.817 254.451 607.936 253.063 605.37 253.784C602.213 254.672 595.595 261.431 596.983 266.365C599.868 276.627 618.442 292.699 622.493 307.105C626.1 319.933 621.721 336.922 606.92 341.084ZM691.967 306.735C689.007 307.567 686.843 306.685 685.135 304.397C678.832 310.003 673.022 318.877 666.312 320.763C656.05 323.649 647.83 316.378 645.277 307.3C641.171 292.696 651.268 261.96 662.351 244.576C667.821 236.011 674.432 230.744 682.326 228.525C685.286 227.692 689.85 227.261 694.833 227.563L695.067 225.368C695.388 222.722 697.226 220.928 699.397 220.317C703.344 219.207 706.261 222.007 706.982 224.573C707.149 225.165 707.173 226.01 707.253 227.052L698.185 287.951C699.844 288.549 700.88 289.961 701.379 291.737C702.322 295.092 700.281 298.434 697.123 299.322L696.334 299.544L696.1 301.74C695.921 304.133 694.138 306.124 691.967 306.735ZM685.656 240.365C668.881 245.082 660.523 277.459 656.557 296.675C656.181 299.123 656.057 301.713 656.723 304.081C657.556 307.041 660.078 309.952 663.038 309.12C666.196 308.232 669.113 304.218 669.68 303.206C674.016 296.663 679.357 292.18 685.45 289.615L692.951 239.805C690.503 239.428 688.024 239.7 685.656 240.365ZM687.575 212.355C683.573 213.268 680.625 211.115 679.737 207.958C679.127 205.787 679.67 203.931 681.366 202.389L681.255 201.994C680.145 198.047 679.732 189.006 687.626 186.787C690.783 185.899 694.576 188.027 695.408 190.987C696.074 193.355 694.175 196.445 693.638 196.808L693.749 197.203C695.136 202.137 693.693 210.635 687.575 212.355ZM659.324 220.938C655.321 221.851 652.374 219.698 651.486 216.541C650.875 214.37 651.418 212.514 653.114 210.972L653.003 210.577C651.893 206.63 651.481 197.59 659.374 195.37C662.532 194.482 666.325 196.61 667.157 199.57C667.823 201.938 665.923 205.028 665.387 205.391L665.498 205.786C666.885 210.72 665.442 219.218 659.324 220.938ZM693.441 196.864L693.496 197.061L693.638 196.808L693.441 196.864ZM665.189 205.447L665.245 205.644L665.387 205.391L665.189 205.447Z" fill="white"/>
</g>
<g filter="url(#filter1_g_136_4)">
<path d="M238.581 278.957C235.424 279.845 232.137 278.001 231.305 275.041C230.972 273.857 231.033 272.562 231.687 271.1C234.728 264.495 234.235 254.412 232.015 246.519C231.183 243.558 230.011 240.906 228.389 238.168C226.768 235.43 225.541 232.581 224.597 229.226C223.154 224.095 222.403 215.362 228.126 213.753C231.283 212.865 234.428 214.962 235.261 217.922C235.538 218.909 235.674 220.149 235.47 221.697C235.266 223.244 235.458 224.681 235.846 226.063C236.567 228.628 237.794 231.478 239.416 234.216C240.841 237.009 242.179 240.253 243.233 244.003C243.622 245.384 243.979 247.413 244.392 249.64C246.791 248.326 248.746 245.434 251.158 241.136C262.136 221.864 272.917 202.649 283.161 183.797C293.406 164.945 304.297 146.124 316.231 127.223C316.657 126.464 316.83 125.564 316.663 124.972C315.942 122.406 305.581 121.912 303.411 122.523C303.213 122.578 302.818 122.689 302.621 122.745C302.479 122.997 302.085 123.108 301.887 123.164C298.927 123.996 295.498 122.405 294.61 119.247C293.501 115.301 296.356 112.581 300.5 111.416C303.066 110.694 305.348 110.479 307.346 110.769C309.399 111.256 311.145 111.404 313.032 111.299C319.791 111.102 326.136 115.493 327.857 121.611C329.022 125.755 328.386 129.554 326.061 133.402C314.325 152.248 303.235 171.125 292.991 189.977C282.747 208.828 272.305 227.736 261.555 246.304C258.095 252.175 254.068 259.057 245.977 261.332L245.187 261.554C245.181 269.861 243.91 277.459 238.581 278.957ZM229.07 196.664C225.912 197.552 222.823 195.653 221.99 192.693C221.713 191.706 221.744 191.058 221.775 190.411C223.033 178.983 214.857 168.08 214.968 154.845C214.913 154.648 214.913 154.648 214.857 154.451C214.66 154.506 214.66 154.506 214.604 154.309C210.09 149.616 206.119 149.881 197.633 152.267C194.673 153.099 191.639 151.397 190.751 148.239C189.363 143.306 193.878 141.185 198.022 140.019C208.284 137.134 216.554 139.28 223.084 146.601C223.701 147.279 224.318 147.957 225.132 148.58C225.804 149.456 226.223 150.19 226.501 151.177C227.444 154.532 228.19 157.942 228.794 161.605C229.201 165.324 230.058 169.129 231.112 172.879C233.221 180.378 236.372 194.611 229.07 196.664ZM389.282 227.211C386.322 228.043 384.157 227.161 382.449 224.873C376.146 230.479 370.336 239.353 363.627 241.24C353.365 244.125 345.144 236.854 342.592 227.776C338.485 213.172 348.582 182.437 359.665 165.053C365.136 156.487 371.747 151.221 379.641 149.001C382.601 148.169 387.165 147.737 392.147 148.04L392.382 145.844C392.703 143.198 394.541 141.404 396.711 140.794C400.658 139.684 403.575 142.484 404.297 145.049C404.463 145.641 404.488 146.486 404.568 147.528L395.499 208.427C397.158 209.025 398.194 210.437 398.694 212.213C399.637 215.568 397.595 218.911 394.438 219.799L393.649 220.021L393.414 222.216C393.235 224.609 391.453 226.601 389.282 227.211ZM382.97 160.842C366.196 165.559 357.838 197.935 353.872 217.151C353.495 219.599 353.372 222.189 354.038 224.557C354.87 227.518 357.392 230.429 360.353 229.596C363.51 228.708 366.427 224.694 366.995 223.682C371.33 217.139 376.671 212.656 382.764 210.091L390.266 160.281C387.818 159.905 385.339 160.176 382.97 160.842ZM384.89 132.831C380.887 133.744 377.94 131.591 377.052 128.434C376.441 126.263 376.984 124.407 378.68 122.865L378.569 122.471C377.459 118.524 377.047 109.483 384.94 107.263C388.098 106.375 391.89 108.503 392.723 111.463C393.389 113.831 391.489 116.921 390.953 117.285L391.064 117.679C392.451 122.613 391.007 131.111 384.89 132.831ZM356.638 141.414C352.636 142.327 349.688 140.174 348.8 137.017C348.19 134.846 348.733 132.99 350.429 131.448L350.318 131.054C349.208 127.107 348.795 118.066 356.689 115.846C359.847 114.958 363.639 117.086 364.471 120.046C365.137 122.414 363.238 125.504 362.701 125.868L362.812 126.262C364.2 131.196 362.756 139.694 356.638 141.414ZM390.755 117.34L390.811 117.538L390.953 117.285L390.755 117.34ZM362.504 125.923L362.559 126.121L362.701 125.868L362.504 125.923ZM428.649 232.539C425.688 233.371 422.26 231.78 421.372 228.622C420.095 224.083 426.281 219.575 430.574 216.665C429.679 215 429.038 213.476 428.594 211.898C427.262 207.161 427.676 202.573 428.003 198.435C428.484 191.059 429.218 183.826 430.15 176.536C430.884 169.302 431.871 162.21 432.661 155.174L435.086 134.262C436.696 119.541 438.639 106.005 437.431 91.864C433.293 91.5369 431.998 91.4752 430.42 91.9191C429.828 92.0856 429.433 92.1966 428.896 92.5604C428.36 92.9242 428.021 93.2326 427.428 93.399C424.468 94.2314 420.953 93.0904 419.899 89.3408C418.622 84.8018 422.662 81.7494 427.201 80.473C431.345 79.3077 444.185 79.5303 446.374 81.2572C447.299 82.2748 448.082 83.5453 448.526 85.124C450.622 102.423 448.524 119.197 446.569 135.718L444.088 156.433C442.367 170.758 440.899 185.226 439.769 199.385C439.276 202.931 439.066 205.972 439.898 208.932C444.789 204.362 448.274 199.337 449.403 191.992C449.779 189.543 451.025 187.915 453.59 187.194C456.945 186.251 459.948 188.6 460.67 191.166C460.836 191.758 460.861 192.603 460.941 193.645C458.412 212.67 444.079 219.256 430.85 231.281C430.172 231.897 429.438 232.317 428.649 232.539ZM494.906 207.306C491.552 208.249 487.814 206.319 486.871 202.964C486.483 201.582 486.489 200.09 487.001 198.881C486.581 198.147 486.36 197.358 486.082 196.371C485.86 195.582 485.638 194.792 485.416 194.003C480.255 175.65 491.412 167.615 492.251 148.639C492.35 145.204 496.471 129.565 496.304 128.973C496.027 127.986 495.466 127.505 494.676 127.727C489.545 129.17 485.918 141.263 478.617 143.316C475.262 144.26 471.525 142.329 470.47 138.58C468.972 133.251 474.923 130.939 478.691 125.407C481.609 121.393 485.685 116.2 491.211 114.647C498.315 112.649 507.048 118.711 508.823 125.027C511.542 134.697 505.887 140.333 505.399 149.201C504.72 163.447 494.828 179.005 498.046 190.452C503.443 186.166 507.155 180.437 508.987 173.32C509.758 170.761 511.313 169.472 513.483 168.862C517.233 167.807 520.686 170.243 521.63 173.598C521.963 174.782 522.043 175.825 521.728 176.978C518.354 189.213 508.326 203.532 494.906 207.306ZM498.569 105.976C495.411 106.864 491.976 106.765 489.417 105.994L486.851 106.716C483.472 106.814 481.597 103.934 480.543 100.185C480.944 98.5811 482.56 95.9972 485.125 95.2758C485.322 95.2203 486.167 95.1957 487.21 95.1156L489.578 94.4497C491.971 94.6286 493.969 94.9186 496.139 94.3082C497.323 93.9752 498.199 93.303 498.822 92.489C499.445 91.675 500.179 91.2557 500.771 91.0892C503.139 90.4233 506.925 94.0435 507.425 95.8196C508.368 99.1745 503.897 104.478 498.569 105.976ZM538.114 201.757C535.154 202.59 531.725 200.999 530.837 197.841C529.561 193.302 535.747 188.794 540.039 185.884C539.145 184.219 538.504 182.695 538.06 181.117C536.728 176.38 537.141 171.792 537.468 167.654C537.95 160.278 538.684 153.044 539.616 145.755C540.35 138.521 541.337 131.429 542.127 124.393L544.551 103.481C546.162 88.7602 548.105 75.2238 546.897 61.0828C542.759 60.7557 541.464 60.694 539.885 61.138C539.293 61.3044 538.898 61.4154 538.362 61.7792C537.825 62.1431 537.486 62.4514 536.894 62.6179C533.934 63.4503 530.419 62.3092 529.364 58.5596C528.088 54.0207 532.128 50.9682 536.666 49.6919C540.811 48.5265 553.65 48.7492 555.84 50.476C556.765 51.4936 557.548 52.7641 557.992 54.3429C560.088 71.6413 557.99 88.4154 556.034 104.937L553.554 125.651C551.833 139.977 550.364 154.445 549.235 168.604C548.741 172.15 548.532 175.191 549.364 178.151C554.255 173.581 557.739 168.555 558.868 161.211C559.244 158.762 560.49 157.134 563.056 156.413C566.411 155.469 569.414 157.819 570.135 160.385C570.302 160.977 570.326 161.822 570.406 162.864C567.877 181.889 553.545 188.474 540.316 200.499C539.637 201.116 538.904 201.535 538.114 201.757ZM591.883 186.638C588.923 187.47 585.494 185.879 584.606 182.721C583.33 178.182 589.516 173.675 593.808 170.764C592.914 169.099 592.273 167.576 591.829 165.997C590.497 161.261 590.91 156.672 591.237 152.534C591.719 145.159 592.453 137.925 593.385 130.635C594.119 123.402 595.106 116.31 595.896 109.273L598.32 88.3611C599.931 73.6406 601.874 60.1041 600.666 45.9632C596.528 45.6361 595.233 45.5744 593.654 46.0183C593.062 46.1848 592.667 46.2958 592.131 46.6596C591.594 47.0234 591.255 47.3318 590.663 47.4982C587.703 48.3306 584.188 47.1896 583.133 43.44C581.857 38.901 585.897 35.8486 590.436 34.5722C594.58 33.4069 607.42 33.6296 609.609 35.3564C610.534 36.374 611.317 37.6445 611.761 39.2232C613.857 56.5217 611.759 73.2958 609.803 89.8171L607.323 110.532C605.602 124.858 604.133 139.325 603.004 153.485C602.511 157.031 602.301 160.071 603.133 163.031C608.024 158.462 611.508 153.436 612.637 146.091C613.014 143.643 614.259 142.015 616.825 141.293C620.18 140.35 623.183 142.7 623.904 145.265C624.071 145.857 624.095 146.702 624.176 147.744C621.646 166.769 607.314 173.355 594.085 185.38C593.407 185.996 592.673 186.416 591.883 186.638ZM689.927 142.671C686.966 143.504 684.802 142.622 683.094 140.334C676.791 145.939 670.981 154.813 664.271 156.7C654.009 159.585 645.789 152.314 643.236 143.236C639.13 128.633 649.227 97.8969 660.31 80.5127C665.78 71.9471 672.392 66.6808 680.285 64.4611C683.246 63.6287 687.809 63.1972 692.792 63.4997L693.027 61.3042C693.347 58.6586 695.185 56.8641 697.356 56.2537C701.303 55.1438 704.22 57.9438 704.941 60.5093C705.108 61.1013 705.132 61.9462 705.213 62.9885L696.144 123.887C697.803 124.485 698.839 125.898 699.338 127.674C700.282 131.029 698.24 134.371 695.083 135.259L694.293 135.481L694.059 137.676C693.88 140.069 692.097 142.061 689.927 142.671ZM683.615 76.3019C666.841 81.0188 658.483 113.395 654.516 132.611C654.14 135.059 654.017 137.65 654.683 140.018C655.515 142.978 658.037 145.889 660.997 145.056C664.155 144.169 667.072 140.154 667.639 139.143C671.975 132.6 677.316 128.117 683.409 125.551L690.911 75.741C688.462 75.3647 685.983 75.636 683.615 76.3019ZM685.534 48.2915C681.532 49.204 678.584 47.0516 677.696 43.8941C677.086 41.7233 677.629 39.867 679.325 38.3254L679.214 37.9307C678.104 33.9837 677.691 24.9429 685.585 22.7232C688.743 21.8353 692.535 23.9631 693.368 26.9233C694.033 29.2915 692.134 32.3811 691.597 32.7449L691.708 33.1396C693.096 38.0732 691.652 46.5712 685.534 48.2915ZM657.283 56.8745C653.281 57.787 650.333 55.6346 649.445 52.4771C648.835 50.3063 649.377 48.45 651.073 46.9084L650.962 46.5137C649.853 42.5668 649.44 33.5259 657.334 31.3062C660.491 30.4183 664.284 32.5461 665.116 35.5063C665.782 37.8745 663.883 40.964 663.346 41.3279L663.457 41.7226C664.844 46.6562 663.401 55.1543 657.283 56.8745ZM691.4 32.8004L691.455 32.9977L691.597 32.7449L691.4 32.8004ZM663.149 41.3834L663.204 41.5807L663.346 41.3279L663.149 41.3834Z" fill="white"/>
</g>
<defs>
<filter id="filter0_g_136_4" x="47.6542" y="164.858" width="683.657" height="323.329" filterUnits="userSpaceOnUse" color-interpolation-filters="sRGB">
<feFlood flood-opacity="0" result="BackgroundImageFix"/>
<feBlend mode="normal" in="SourceGraphic" in2="BackgroundImageFix" result="shape"/>
<feTurbulence type="fractalNoise" baseFrequency="0.21739131212234497 0.21739131212234497" numOctaves="3" seed="806" />
<feDisplacementMap in="shape" scale="2.5999999046325684" xChannelSelector="R" yChannelSelector="G" result="displacedImage" width="100%" height="100%" />
<feMerge result="effect1_texture_136_4">
<feMergeNode in="displacedImage"/>
</feMerge>
</filter>
<filter id="filter1_g_136_4" x="187.841" y="0.794727" width="542.983" height="288.86" filterUnits="userSpaceOnUse" color-interpolation-filters="sRGB">
<feFlood flood-opacity="0" result="BackgroundImageFix"/>
<feBlend mode="normal" in="SourceGraphic" in2="BackgroundImageFix" result="shape"/>
<feTurbulence type="fractalNoise" baseFrequency="0.21739131212234497 0.21739131212234497" numOctaves="3" seed="806" />
<feDisplacementMap in="shape" scale="2.5999999046325684" xChannelSelector="R" yChannelSelector="G" result="displacedImage" width="100%" height="100%" />
<feMerge result="effect1_texture_136_4">
<feMergeNode in="displacedImage"/>
</feMerge>
</filter>
</defs>
</svg>
